<svg width="69" height="69" viewBox="0 0 69 69" fill="none" xmlns="http://www.w3.org/2000/svg">
<g clip-path="url(#clip0_32_60)">
<path d="M0.657227 8.20325C0.657227 4.09775 3.98923 0.765747 8.09473 0.765747H61.2197C65.3252 0.765747 68.6572 4.09775 68.6572 8.20325V48.5782C68.6572 50.5508 67.8736 52.4426 66.4788 53.8374C65.084 55.2322 63.1923 56.0157 61.2197 56.0157H34.9122L23.977 66.951C23.1102 67.8145 22.0072 68.4021 20.807 68.6397C19.6068 68.8772 18.3631 68.7542 17.2327 68.286C16.1023 67.8179 15.1358 67.0256 14.455 66.009C13.7743 64.9924 13.4097 63.797 13.4072 62.5735V56.0157H8.09473C6.12218 56.0157 4.23042 55.2322 2.83562 53.8374C1.44082 52.4426 0.657227 50.5508 0.657227 48.5782L0.657227 8.20325ZM8.09473 7.14075C7.81293 7.14075 7.54268 7.25269 7.34343 7.45195C7.14417 7.6512 7.03223 7.92145 7.03223 8.20325V48.5782C7.03223 49.1647 7.50823 49.6407 8.09473 49.6407H16.5947C17.4401 49.6407 18.2509 49.9766 18.8486 50.5743C19.4464 51.1721 19.7822 51.9829 19.7822 52.8282V62.1357L31.3422 50.5757C31.6378 50.2795 31.9889 50.0444 32.3754 49.884C32.7619 49.7235 33.1762 49.6409 33.5947 49.6407H61.2197C61.5015 49.6407 61.7718 49.5288 61.971 49.3295C62.1703 49.1303 62.2822 48.86 62.2822 48.5782V8.20325C62.2822 7.92145 62.1703 7.6512 61.971 7.45195C61.7718 7.25269 61.5015 7.14075 61.2197 7.14075H8.09473ZM37.8447 16.7032V27.3282C37.8447 28.1736 37.5089 28.9844 36.9111 29.5822C36.3134 30.1799 35.5026 30.5157 34.6572 30.5157C33.8118 30.5157 33.0011 30.1799 32.4033 29.5822C31.8056 28.9844 31.4697 28.1736 31.4697 27.3282V16.7032C31.4697 15.8579 31.8056 15.0471 32.4033 14.4493C33.0011 13.8516 33.8118 13.5157 34.6572 13.5157C35.5026 13.5157 36.3134 13.8516 36.9111 14.4493C37.5089 15.0471 37.8447 15.8579 37.8447 16.7032ZM38.9072 39.0157C38.9072 40.1429 38.4595 41.2239 37.6624 42.021C36.8654 42.818 35.7844 43.2657 34.6572 43.2657C33.5301 43.2657 32.4491 42.818 31.652 42.021C30.855 41.2239 30.4072 40.1429 30.4072 39.0157C30.4072 37.8886 30.855 36.8076 31.652 36.0105C32.4491 35.2135 33.5301 34.7657 34.6572 34.7657C35.7844 34.7657 36.8654 35.2135 37.6624 36.0105C38.4595 36.8076 38.9072 37.8886 38.9072 39.0157Z" fill="#FF556E"/>
</g>
<defs>
<clipPath id="clip0_32_60">
<rect width="68" height="68" fill="white" transform="translate(0.657227 0.765747)"/>
</clipPath>
</defs>
</svg>
