<svg width="31" height="31" viewBox="0 0 31 31"  xmlns="http://www.w3.org/2000/svg">
<path d="M13.7455 3.43001C14.1641 3.10436 14.6738 2.91721 15.2036 2.89457C15.7335 2.87193 16.2572 3.01493 16.7021 3.30369L16.8795 3.43129L27.5778 11.7511C28.4978 12.4669 28.0499 13.9101 26.9411 14.0288L26.793 14.0365H25.5208V24.2448C25.521 24.8887 25.2778 25.5088 24.8401 25.9809C24.4023 26.453 23.8022 26.7422 23.1601 26.7905L22.9687 26.7969H7.65623C7.01259 26.7968 6.39277 26.5535 5.92093 26.1157C5.44908 25.6779 5.16008 25.078 5.11181 24.4362L5.10415 24.2448V14.0365H3.83194C2.66691 14.0365 2.13225 12.6226 2.93488 11.8481L3.04717 11.7511L13.7455 3.43001ZM15.3125 5.44488L7.17772 11.7715C7.46993 12.0076 7.65623 12.3687 7.65623 12.7732V24.2448H11.4844V17.8646C11.4844 16.8493 11.8877 15.8756 12.6056 15.1577C13.3235 14.4398 14.2972 14.0365 15.3125 14.0365C16.3278 14.0365 17.3015 14.4398 18.0194 15.1577C18.7373 15.8756 19.1406 16.8493 19.1406 17.8646V24.2448H22.9687V12.7732C22.9687 12.3687 23.155 12.0076 23.4472 11.7715L15.3125 5.44488ZM15.3125 16.5886C14.9741 16.5886 14.6495 16.723 14.4102 16.9623C14.1709 17.2016 14.0364 17.5262 14.0364 17.8646V24.2448H16.5885V17.8646C16.5885 17.5262 16.4541 17.2016 16.2148 16.9623C15.9755 16.723 15.6509 16.5886 15.3125 16.5886Z" />
</svg>
