<svg width="15" height="15" viewBox="0 0 15 15" fill="none" xmlns="http://www.w3.org/2000/svg">
<path d="M10.6069 9.21724L10.2467 9.57587C10.2467 9.57587 9.38928 10.4277 7.0499 8.10179C4.71053 5.77587 5.5679 4.92404 5.5679 4.92404L5.79432 4.69762C6.35403 4.14187 6.40707 3.24887 5.91861 2.59654L4.92111 1.26416C4.31628 0.456661 3.14857 0.349786 2.45586 1.03854L1.21294 2.27354C0.870152 2.61554 0.640568 3.05729 0.668277 3.54812C0.739527 4.80449 1.30794 7.50645 4.47778 10.6589C7.83999 14.0013 10.9948 14.1343 12.2844 14.014C12.6929 13.976 13.0476 13.7685 13.3334 13.4835L14.4575 12.3657C15.2175 11.6112 15.0038 10.3169 14.0316 9.78883L12.5195 8.96629C11.8814 8.61954 11.1056 8.72166 10.6069 9.21724Z" fill="#898C94"/>
</svg>
