<svg width="29" height="29" viewBox="0 0 29 29"  xmlns="http://www.w3.org/2000/svg">
<path d="M18.9922 16.6182C20.5217 16.6183 21.992 17.2088 23.0967 18.2666C24.2013 19.3243 24.855 20.7677 24.9214 22.2957L24.9273 22.5533V23.7403C24.9275 24.3392 24.7013 24.9161 24.294 25.3553C23.8868 25.7945 23.3286 26.0635 22.7313 26.1084L22.5533 26.1143H5.93507C5.33613 26.1145 4.75925 25.8883 4.32007 25.4811C3.8809 25.0738 3.61189 24.5156 3.56697 23.9184L3.56104 23.7403V22.5533C3.56112 21.0239 4.15162 19.5535 5.2094 18.4489C6.26717 17.3442 7.71055 16.6905 9.23853 16.6241L9.49611 16.6182H18.9922ZM14.2442 2.37402C15.8183 2.37402 17.3279 2.99932 18.4409 4.11237C19.554 5.22541 20.1793 6.73502 20.1793 8.3091C20.1793 9.88318 19.554 11.3928 18.4409 12.5058C17.3279 13.6189 15.8183 14.2442 14.2442 14.2442C12.6701 14.2442 11.1605 13.6189 10.0474 12.5058C8.9344 11.3928 8.3091 9.88318 8.3091 8.3091C8.3091 6.73502 8.9344 5.22541 10.0474 4.11237C11.1605 2.99932 12.6701 2.37402 14.2442 2.37402Z" />
</svg>
