<svg width="44" height="44" viewBox="0 0 44 44"  xmlns="http://www.w3.org/2000/svg">
<path d="M21.9 12.6217C24.6813 12.6216 27.3544 13.6995 29.3577 15.6289C31.361 17.5584 32.5385 20.1891 32.6428 22.9685L32.65 23.3717V35.9133H34.4416C34.8983 35.9138 35.3375 36.0887 35.6696 36.4022C36.0016 36.7157 36.2015 37.1441 36.2282 37.6C36.255 38.0559 36.1067 38.5048 35.8136 38.8549C35.5205 39.2051 35.1047 39.4302 34.6512 39.4841L34.4416 39.4967H9.35829C8.90163 39.4962 8.4624 39.3213 8.13034 39.0078C7.79828 38.6943 7.59845 38.2659 7.57169 37.81C7.54493 37.3541 7.69325 36.9052 7.98635 36.555C8.27945 36.2049 8.6952 35.9798 9.14866 35.9259L9.35829 35.9133H11.15V23.3717C11.15 20.5206 12.2825 17.7863 14.2986 15.7703C16.3146 13.7543 19.0489 12.6217 21.9 12.6217ZM21.9 16.205C19.9992 16.205 18.1764 16.9601 16.8324 18.3041C15.4883 19.6481 14.7333 21.4709 14.7333 23.3717V35.9133H29.0666V23.3717C29.0666 21.4709 28.3116 19.6481 26.9676 18.3041C25.6235 16.9601 23.8007 16.205 21.9 16.205ZM22.8209 20.9404C23.2282 21.1845 23.5218 21.5804 23.6374 22.041C23.753 22.5016 23.681 22.9892 23.4372 23.3967L22.3765 25.1633H24.5552C25.9617 25.1633 26.8306 26.6988 26.1068 27.9046L23.4372 32.3569C23.1925 32.7646 22.7958 33.0584 22.3345 33.1736C21.8732 33.2889 21.385 33.2161 20.9772 32.9714C20.5695 32.7267 20.2758 32.33 20.1605 31.8687C20.0453 31.4074 20.118 30.9192 20.3627 30.5115L21.4234 28.7467H19.2447C18.9244 28.7467 18.6098 28.6617 18.3331 28.5004C18.0564 28.3391 17.8274 28.1072 17.6696 27.8284C17.5118 27.5497 17.4309 27.234 17.435 26.9138C17.4391 26.5935 17.5282 26.28 17.6931 26.0054L20.3627 21.5531C20.4839 21.3513 20.6437 21.1753 20.833 21.0352C21.0222 20.8952 21.2372 20.7938 21.4657 20.7369C21.6941 20.68 21.9316 20.6687 22.1644 20.7036C22.3973 20.7385 22.6209 20.819 22.8227 20.9404H22.8209ZM10.4978 9.43429L11.7645 10.701C12.0911 11.0387 12.272 11.4911 12.2683 11.9609C12.2645 12.4307 12.0764 12.8802 11.7445 13.2126C11.4125 13.545 10.9633 13.7338 10.4935 13.7382C10.0237 13.7426 9.57101 13.5623 9.23287 13.2362L7.96616 11.9695C7.79504 11.8042 7.65855 11.6065 7.56465 11.3879C7.47075 11.1693 7.42132 10.9342 7.41926 10.6963C7.41719 10.4584 7.46252 10.2225 7.55261 10.0023C7.6427 9.78214 7.77573 9.5821 7.94396 9.41387C8.11218 9.24565 8.31222 9.11261 8.53241 9.02253C8.7526 8.93244 8.98853 8.88711 9.22642 8.88917C9.46432 8.89124 9.69942 8.94067 9.91801 9.03457C10.1366 9.12846 10.3343 9.26496 10.4996 9.43608L10.4978 9.43429ZM35.8355 9.43429C36.144 9.7428 36.3293 10.1533 36.3567 10.5887C36.3841 11.0241 36.2517 11.4546 35.9842 11.7993L35.8355 11.9677L34.5688 13.2344C34.2464 13.5557 33.8138 13.7423 33.3588 13.7562C32.9038 13.7701 32.4606 13.6103 32.1191 13.3092C31.7777 13.0082 31.5637 12.5884 31.5205 12.1353C31.4773 11.6821 31.6083 11.2295 31.8867 10.8694L32.0354 10.701L33.3021 9.43429C33.6381 9.0984 34.0937 8.90971 34.5688 8.90971C35.0439 8.90971 35.4996 9.0984 35.8355 9.43429ZM21.9 3.66333C22.3388 3.66339 22.7624 3.8245 23.0903 4.11611C23.4182 4.40772 23.6277 4.80955 23.6791 5.24537L23.6916 5.455V7.24666C23.6911 7.70332 23.5163 8.14256 23.2028 8.47462C22.8893 8.80668 22.4608 9.0065 22.005 9.03326C21.5491 9.06003 21.1002 8.91171 20.75 8.61861C20.3998 8.32551 20.1748 7.90975 20.1208 7.45629L20.1083 7.24666V5.455C20.1083 4.97982 20.2971 4.5241 20.6331 4.1881C20.9691 3.85209 21.4248 3.66333 21.9 3.66333Z" />
</svg>
